<?xml version="1.0" encoding="UTF-8"?><svg id="Layer_1" xmlns="http://www.w3.org/2000/svg" viewBox="0 0 206.57 206.34"><defs><style>.cls-1{fill:#fefefe;}.cls-2{fill:#fefdfd;}.cls-3{fill:#be4c4b;}</style></defs><g id="uEaj3Z.tif"><g><path class="cls-3" d="M206.53,103.48c0,5-.09,10,.04,14.99,.05,2.12-.74,2.74-2.75,2.68-3.88-.11-7.78,.12-11.66-.09-2.16-.12-2.85,.78-3.29,2.65-3.56,15.3-10.87,28.61-21.66,39.99-11.61,12.25-25.61,20.47-41.94,24.77-4.75,1.25-4.1-.06-4.14,5.38-.03,3.52-.05,7.04,.01,10.55,.03,1.44-.5,1.94-1.94,1.94-10.65-.04-21.29-.04-31.94,0-1.52,0-1.87-.68-1.85-2.03,.05-4.16-.07-8.33,.06-12.5,.06-1.83-.55-2.5-2.35-2.93-18.76-4.48-34.45-14.07-46.97-28.74-9.03-10.58-15.25-22.66-18.4-36.23-.51-2.22-1.38-2.99-3.69-2.85-3.78,.22-7.59,0-11.38,.09-1.83,.04-2.69-.44-2.67-2.48,.07-10.37,.06-20.74,0-31.1,0-1.86,.74-2.41,2.5-2.37,3.89,.09,7.78-.11,11.66,.08,2.13,.1,3.04-.51,3.55-2.65,4.42-18.7,14.12-34.22,28.69-46.67,10.65-9.1,22.87-15.27,36.53-18.44,2.08-.48,2.62-1.35,2.55-3.35-.15-3.98,.03-7.96-.08-11.94-.05-1.72,.57-2.23,2.24-2.22,10.46,.06,20.92,.06,31.38,0,1.8-.01,2.16,.74,2.13,2.32-.08,3.89,.08,7.78-.07,11.66-.08,2.07,.41,3.03,2.66,3.56,18.08,4.31,33.29,13.5,45.61,27.41,9.55,10.78,16.12,23.18,19.4,37.22,.58,2.47,1.53,3.27,4.04,3.11,3.78-.24,7.59,0,11.38-.09,1.84-.04,2.42,.67,2.39,2.46-.08,5.28-.03,10.55-.03,15.83Z"/><path class="cls-2" d="M152.8,98.02c-13.88,0-27.77-.03-41.65,.04-2.02,.01-2.88-.31-2.87-2.66,.09-27.77,.05-55.54,.09-83.3,0-1.02-.71-2.59,1.33-2.72,1.24-.08,2.25,.05,2.1,1.7-.06,.73,0,1.48,0,2.22,0,26.1,.03,52.2-.06,78.3,0,2.42,.55,3.07,3.03,3.06,26.56-.1,53.13-.07,79.69-.02,.88,0,2.34-.88,2.68,.97,.36,1.99-.49,2.46-2.41,2.45-13.98-.08-27.95-.04-41.93-.04Z"/><path class="cls-2" d="M54.04,108.33c13.79,0,27.58,.06,41.37-.06,2.36-.02,2.86,.7,2.86,2.95-.08,27.68-.06,55.35-.04,83.03,0,1.54,.22,3.05-2.17,2.73-.95-.13-1.29-.5-1.26-1.39,.02-.74,0-1.48,0-2.22,0-26.19-.03-52.39,.06-78.58,0-2.4-.52-3.09-3.02-3.08-26.56,.1-53.13,.07-79.69,.02-.91,0-2.37,.82-2.72-.96-.39-1.98,.49-2.48,2.42-2.47,14.07,.07,28.14,.04,42.21,.04Z"/><path class="cls-1" d="M60.47,98.02c-11.57,0-23.13,0-34.7-.01-1.18,0-2.61,.53-2.61-1.71,0-2.26,1.47-1.68,2.62-1.68,22.02-.02,44.05-.06,66.07,.05,2.52,.01,3.01-.71,3-3.09-.09-21.93-.07-43.86-.02-65.79,0-.94-.73-2.37,.95-2.75,1.95-.43,2.48,.44,2.47,2.38-.07,19.99-.04,39.97-.04,59.96,0,3.15-.22,6.31,.06,9.43,.25,2.83-.83,3.29-3.39,3.26-11.47-.14-22.95-.06-34.42-.06Z"/><path class="cls-2" d="M108.34,145.74c0-11.57,.06-23.14-.05-34.71-.02-2.23,.65-2.76,2.8-2.75,23.23,.07,46.46,.04,69.69,.06,1.19,0,2.63-.49,2.62,1.72,0,2.24-1.48,1.69-2.65,1.69-22.03,.02-44.05,.05-66.08-.04-2.28,0-2.93,.56-2.92,2.89,.09,22.03,.06,44.05,.02,66.08,0,.93,.7,2.36-1.11,2.64-1.86,.28-2.36-.52-2.35-2.33,.07-11.75,.04-23.51,.04-35.26Z"/><path class="cls-1" d="M121.18,178.1c-.43-1.71,.43-2.35,2.03-2.83,26.77-8.03,44.17-25.5,52.19-52.23,.69-2.29,2.1-2.11,3.55-1.84,1.99,.37,.82,1.84,.54,2.77-8.54,28.66-27.24,47.13-55.88,55.58-1.18,.35-2.98,1.34-2.44-1.45Z"/><path class="cls-1" d="M85.19,180.07c-9.23-1.98-17.73-5.71-25.51-10.96-16.5-11.14-27.53-26.29-32.73-45.57-.22-.8-1.25-2.14,.54-2.32,1.28-.13,2.96-.82,3.56,1.45,3.24,12.32,9.37,23.03,18.16,32.24,9.2,9.64,20.2,16.43,33,20.04,3.2,.9,3.74,2.27,2.99,5.12Z"/><path class="cls-1" d="M28.71,85.15c-2.01,.38-2.39-.32-1.9-2.09,6.22-22.39,19.62-39.03,40.03-50.05,4.97-2.68,10.22-4.76,15.72-6.07,.79-.19,2.37-1.79,2.79,.33,.29,1.46,.68,3.21-1.87,3.76-4.98,1.08-9.68,3.07-14.19,5.44-17.26,9.06-29.45,22.64-36.26,40.95-.74,1.98-1.45,4-1.94,6.05-.36,1.5-1.04,2.11-2.38,1.68Z"/><path class="cls-1" d="M121.13,28.23c-.34-1.77,.39-2.06,2.28-1.52,26.45,7.57,44.54,24.22,54.31,49.92,.75,1.97,1.33,4.02,1.87,6.07,.22,.82,1.19,2.15-.38,2.42-1.33,.23-3.17,.91-3.73-1.54-.97-4.24-2.53-8.28-4.43-12.19-10-20.49-25.92-33.97-47.82-40.36-2.07-.6-2.07-.6-2.11-2.79Z"/></g></g></svg>