<?xml version="1.0" encoding="utf-8"?>
<!-- Generator: Adobe Illustrator 27.1.1, SVG Export Plug-In . SVG Version: 6.00 Build 0)  -->
<svg version="1.0" id="Layer_1" xmlns="http://www.w3.org/2000/svg" xmlns:xlink="http://www.w3.org/1999/xlink" x="0px" y="0px"
	 viewBox="0 0 2500 1445" style="enable-background:new 0 0 2500 1445;" xml:space="preserve">
<style type="text/css">
	.st0{fill:#FFFFFF;}
	.st1{opacity:0.5;enable-background:new    ;}
</style>
<path class="st0" d="M1973.96,288.38h-1.24L1488.36,6.25l-478.15,278.39L519.59,0L0.27,302.11v549.3l1002.46,584.24l479.38-277.14
	l491.87,284.63l523.07-302.11v-549.3L1973.96,288.38L1973.96,288.38z M1971.47,851.4l-410.72-238.43l414.46-242.19l410.73,240.94
	L1971.47,851.4L1971.47,851.4z M998.98,367.03l414.46,239.69l-409.46,238.43L590.76,604.22L998.98,367.03z M1900.32,329.58
	L1494.6,565.52l-413.22-239.69l406.97-237.19L1900.32,329.58z M932.81,322.09l-83.63,48.68l-338.32,191L107.63,322.08L520.86,82.39
	L932.81,322.09L932.81,322.09z M72.68,382.01L478.4,626.69v431.94L72.68,811.47V382.01z M559.54,669.13l405.73,240.94v430.69
	l-405.73-240.93L559.54,669.13L559.54,669.13z M1524.55,674.13l413.22,243.43v426.96l-413.22-245.94V674.13z"/>
<path class="st1" d="M559.54,1101.08l405.73,238.44V910.08L559.54,669.13V1101.08L559.54,1101.08z M72.68,810.21l405.72,247.18
	v-430.7L72.68,382.01V810.21z M1524.55,1099.83l413.22,245.93v-428.2l-413.22-243.43V1099.83z"/>
</svg>
