<?xml version="1.0" encoding="utf-8"?>
<!-- Generator: Adobe Illustrator 27.1.1, SVG Export Plug-In . SVG Version: 6.00 Build 0)  -->
<svg version="1.0" id="layer" xmlns="http://www.w3.org/2000/svg" xmlns:xlink="http://www.w3.org/1999/xlink" x="0px" y="0px"
	 viewBox="0 0 329 329" style="enable-background:new 0 0 329 329;" xml:space="preserve">
<style type="text/css">
	.st0{fill:#E60012;}
</style>
<polygon class="st0" points="275,119.05 275,194.65 257.7,200.65 257.7,112.95 205.8,94.85 205.8,218.75 188.6,224.75 188.6,88.85 
	162.7,79.85 136.8,88.85 136.8,224.75 119.5,218.75 119.5,94.85 67.7,112.95 67.7,200.65 50.4,194.65 50.4,119.05 33.1,125.05 
	33.1,206.95 84.9,225.05 84.9,125.25 102.2,119.25 102.2,231.05 154,249.15 154,101.15 162.7,98.15 171.3,101.15 171.3,249.15 
	223.2,231.05 223.2,119.25 240.4,125.25 240.4,225.05 292.2,206.95 292.2,125.05 "/>
</svg>
