<?xml version="1.0" encoding="utf-8"?>
<!-- Generator: Adobe Illustrator 27.1.1, SVG Export Plug-In . SVG Version: 6.00 Build 0)  -->
<svg version="1.0" id="Layer_1" xmlns="http://www.w3.org/2000/svg" xmlns:xlink="http://www.w3.org/1999/xlink" x="0px" y="0px"
	 viewBox="0 0 111.11 114" style="enable-background:new 0 0 111.11 114;" xml:space="preserve">
<style type="text/css">
	.st0{fill:#FFFFFF;}
</style>
<path class="st0" d="M82.63,78.04l26.23-6.01c0.4-0.08,0.79-0.25,1.12-0.48c0.34-0.24,0.62-0.54,0.83-0.9
	c0.21-0.35,0.35-0.75,0.4-1.16c0.05-0.41,0.02-0.82-0.1-1.22L99.96,19.9c-0.2-0.8-0.71-1.48-1.42-1.91
	c-0.71-0.42-1.55-0.55-2.35-0.35l-26.22,6.01c-0.79,0.2-1.47,0.71-1.89,1.42s-0.54,1.55-0.34,2.34l11.12,48.37
	c0.2,0.8,0.71,1.48,1.42,1.91C80.98,78.12,81.83,78.24,82.63,78.04z"/>
<path class="st0" d="M73.59,107.93l31.8-29.44c1.2-1.21,0.9-1.95-0.76-1.36L82.78,82.1c-0.9,0.22-1.74,0.67-2.42,1.3
	c-0.68,0.63-1.2,1.42-1.5,2.3l-6.63,21.33C71.78,108.69,72.38,109.14,73.59,107.93z"/>
<path class="st0" d="M15.58,98.33l47.62,14.71c0.81,0.15,1.65,0.01,2.37-0.4c0.72-0.41,1.27-1.07,1.55-1.84l7.98-25.54
	c0.12-0.4,0.15-0.82,0.11-1.23c-0.05-0.41-0.17-0.81-0.37-1.17c-0.2-0.36-0.47-0.68-0.8-0.94c-0.32-0.26-0.7-0.45-1.1-0.56
	L25.32,66.77c-0.81-0.23-1.67-0.13-2.4,0.27s-1.28,1.08-1.51,1.89l-7.93,25.49c-0.24,0.8-0.15,1.66,0.25,2.39
	C14.12,97.54,14.78,98.08,15.58,98.33z"/>
<path class="st0" d="M0.2,46.04l9.65,42.26c0.3,1.65,1.08,1.65,1.5,0l6.63-21.33c0.23-0.91,0.24-1.86,0.03-2.77
	c-0.21-0.91-0.63-1.76-1.23-2.49L1.56,45.29C0.51,44.05-0.28,44.39,0.2,46.04z"/>
<path class="st0" d="M37.43,0.87L0.96,34.62C0.37,35.18,0.03,35.94,0,36.75c-0.03,0.81,0.26,1.59,0.81,2.19l18.24,19.72
	c0.56,0.6,1.34,0.95,2.16,0.97s1.62-0.27,2.22-0.82L59.88,25c0.59-0.55,0.94-1.32,0.97-2.13c0.03-0.81-0.26-1.6-0.81-2.19
	L41.83,0.97c-0.28-0.3-0.62-0.54-0.99-0.7C40.46,0.1,40.06,0.01,39.65,0c-0.41-0.01-0.82,0.06-1.2,0.21
	C38.07,0.36,37.73,0.58,37.43,0.87z"/>
<path class="st0" d="M72.68,77.29c1.66,0.45,2.71-0.44,2.27-2.16L64.4,29.46c-0.45-1.65-1.81-2.11-3.01-0.91L27.03,60.47
	c-1.21,1.2-0.91,2.55,0.75,3L72.68,77.29z"/>
<path class="st0" d="M90.62,13.59L49.03,0.87c-1.65-0.45-1.95,0.15-0.6,1.5l15.22,16.38c0.68,0.64,1.51,1.1,2.41,1.36
	c0.9,0.25,1.85,0.29,2.76,0.1l21.85-4.95C92.28,14.79,92.28,14.04,90.62,13.59z"/>
</svg>
