<?xml version="1.0" encoding="UTF-8"?><svg id="Layer_1" xmlns="http://www.w3.org/2000/svg" viewBox="0 0 170.33 142.24"><defs><style>.cls-1{fill:#f70;}</style></defs><g id="akIzrE"><g><path class="cls-1" d="m122.19,135.04c7.07-6.97,14.42-12.88,20.14-20.08,22.55-28.41,19.43-70.55-6.31-95.22-3.09-2.96-4.97-2.69-7.73.1-12.29,12.45-24.75,24.74-37.05,37.19-1.86,1.88-3.13,4.33-4.92,6.85-2.73-2.52-4.09-3.68-5.34-4.94-12.92-13.02-25.91-25.96-38.65-39.15-3.15-3.26-5.08-2.9-8.09.08C2.06,51.71,7.07,105.22,44.76,131c1.36.93,2.73,1.85,5.23,3.55-3.1,2.71-5.62,5.39-8.64,7.28-1.12.7-3.78.04-5.11-.89-13.45-9.38-23.45-21.67-29.62-36.88C-8.56,66.59,2.95,25.81,35.04,1.89c3.82-2.85,6-2.42,9.13.84,12,12.5,24.26,24.76,36.42,37.11,4.77,4.84,4.8,4.79,9.76-.19,12.45-12.51,25.02-24.91,37.35-37.54,2.51-2.57,4.18-2.76,7.05-.63,22.25,16.54,34.48,38.53,35.51,66.27,1.11,29.98-10.96,53.9-34.51,72.29-3.98,3.11-6.86,3.02-9.83-1-1.17-1.58-2.68-2.9-3.72-4.01Z"/><path class="cls-1" d="m38.7,33.08c1.15.99,1.91,1.61,2.63,2.28q6.13,5.63,2.27,12.94c-10.25,19.48-6.95,41.36,8.4,57.09,2.7,2.77,4.53,3,7.31.08,7.47-7.84,15.32-15.33,22.8-23.16,2.5-2.62,4.09-2.37,6.43.08,7.25,7.58,14.81,14.87,21.98,22.52,2.97,3.17,4.94,3.28,8.06.1,16.13-16.44,18.79-40.84,6.32-60.1-.63-.97-1.12-2.01-1.72-3.1,2.8-2.95,5.51-5.81,9.25-9.75,3.38,6.14,6.85,11.19,9.1,16.74,10.94,27-.18,59.49-25.07,74.61-3.06,1.86-4.89,1.39-7.24-1.08-6.78-7.11-13.87-13.93-20.68-21.02-2.4-2.49-4.15-2.51-6.55-.03-6.95,7.18-14.17,14.11-21.1,21.32-2.28,2.37-4.13,2.45-6.91.9-30.03-16.77-38.9-61.54-17.42-88.39.5-.62,1.16-1.12,2.13-2.04Z"/></g></g></svg>