<?xml version="1.0" encoding="utf-8"?>
<!-- Generator: Adobe Illustrator 27.1.1, SVG Export Plug-In . SVG Version: 6.00 Build 0)  -->
<svg version="1.0" id="Layer_1" xmlns="http://www.w3.org/2000/svg" xmlns:xlink="http://www.w3.org/1999/xlink" x="0px" y="0px"
	 viewBox="0 0 612 792" style="enable-background:new 0 0 612 792;" xml:space="preserve">
<style type="text/css">
	.st0{fill:#FF7B00;}
</style>
<g id="TAehbZ_00000033334222947734689320000004531091168320827535_">
	<g>
		<path class="st0" d="M-133.92,326.96c-5.09-5.41-9.59-10.25-14.16-15.03c-2.99-3.13-6.04-6.21-9.12-9.25
			c-4.99-4.92-5.26-4.89-9.91,0.61c-16.12,19.02-13.02,47.7,6.8,63.06c1.28,0.99,2.56,1.97,3.81,2.94c-3.68,5.68-4.38,5.83-8.9,2.32
			c-26-20.2-25.33-61.4,1.19-81.01c2.84-2.1,4.31-1.13,6.25,0.87c6.97,7.16,14.1,14.17,21,21.4c2.43,2.54,4.13,2.46,6.53-0.02
			c6.96-7.17,14.2-14.07,21.15-21.26c2.35-2.43,4.06-2.44,6.71-0.4c25.7,19.79,26.43,59.09,1.38,79.7
			c-0.64,0.53-1.39,0.94-1.98,1.51c-2.37,2.26-4.34,1.77-6.24-0.67c-2.15-2.76,0.18-3.78,1.83-5.09
			c20.24-15.92,23.5-43.09,7.54-62.96c-4.55-5.67-5.24-5.74-10.31-0.64C-117.94,310.7-125.49,318.41-133.92,326.96z"/>
		<path class="st0" d="M-161.91,309.95c4,1.7,4.95,4.04,2.82,8.19c-5.82,11.3-4.25,23.51,3.53,32.59c2.67,3.11,4.84,4.01,7.96,0.44
			c3.39-3.88,7.39-7.22,10.89-11.01c2.27-2.45,3.96-2.27,6.13,0.06c3.64,3.89,7.61,7.47,11.18,11.42c2.62,2.9,4.47,2.34,6.87-0.28
			c8.07-8.78,10.14-21.52,4.43-32.46c-2.14-4.11-2.05-6.76,2.75-9.17c0.86,1.09,1.96,2.24,2.77,3.57
			c9.63,15.82,4.69,37.97-10.63,48.39c-2.66,1.81-4.68,1.95-6.93-0.55c-4.1-4.56-8.36-8.98-13.03-13.97
			c-5.25,5.14-9.83,9.42-14.16,13.93c-2.12,2.21-4.03,2.53-6.51,0.81c-16-11.06-21.95-33.41-9.36-51.02
			C-162.9,310.51-162.4,310.3-161.91,309.95z"/>
	</g>
</g>
</svg>
