<?xml version="1.0" encoding="utf-8"?>
<!-- Generator: Adobe Illustrator 27.1.1, SVG Export Plug-In . SVG Version: 6.00 Build 0)  -->
<svg version="1.0" id="Layer_1" xmlns="http://www.w3.org/2000/svg" xmlns:xlink="http://www.w3.org/1999/xlink" x="0px" y="0px"
	 viewBox="0 0 612 400" style="enable-background:new 0 0 612 400;" xml:space="preserve">
<style type="text/css">
	.st0{fill:#512FC9;}
	.st1{fill:#FFFFFF;}
</style>
<path class="st0" d="M350.14,9.78c5.35,0.95,6.12,4.89,6.87,8.86c2.69,14.25,5.31,28.52,8.23,42.73c0.33,1.61,2.15,3.48,3.74,4.16
	c12.53,5.34,24.29,11.92,35.2,20.11c1.22,0.92,3.86,0.68,5.56,0.12c13.61-4.46,27.15-9.13,40.72-13.72
	c8.71-2.95,10.77-2.37,16.56,4.66c11.17,13.57,21,28,28.21,44.1c1.93,4.31,3.84,8.64,5.56,13.04c2.81,7.15,1.09,11.36-5.81,16.87
	c-11.04,8.82-21.91,17.85-32.73,26.94c-0.88,0.74-1.16,2.67-1.05,4c0.46,5.36,1.76,10.72,1.67,16.06
	c-0.12,7.86-1.33,15.7-1.67,23.56c-0.07,1.58,1.24,3.68,2.55,4.79c11.63,9.93,23.34,19.76,35.15,29.46
	c3.73,3.06,3.92,6.79,2.54,10.68c-7.17,20.16-17.34,38.66-31.07,55.14c-0.52,0.62-0.96,1.32-1.42,1.99
	c-6.38,9.13-9.83,10.28-20.36,6.7c-12.48-4.24-24.99-8.4-37.4-12.85c-3.99-1.43-6.93-0.54-10.44,1.6
	c-9.56,5.83-19.21,11.67-29.34,16.38c-5.58,2.59-6.47,6.75-7.37,11.54c-2.41,12.83-4.74,25.67-7.1,38.5
	c-1.46,7.94-8.08,8.48-13.96,8.86c-16.17,1.04-32.39,1.87-48.59,1.95c-7.45,0.04-14.96-1.63-22.36-2.99
	c-4.11-0.75-6.21-4.12-6.96-8.06c-2.76-14.4-5.27-28.84-8.23-43.2c-0.41-2-2.46-4.43-4.36-5.24c-12.2-5.26-23.9-11.26-34.41-19.5
	c-1.15-0.9-3.77-0.56-5.46-0.02c-13.32,4.28-26.59,8.69-39.84,13.18c-11.36,3.85-11.38,2.81-18.88-5.87
	c-11.14-12.89-20.17-27.32-27.2-42.9c-1.94-4.31-3.84-8.65-5.54-13.06c-2.77-7.19-0.71-11.56,6.41-17.15
	c10.98-8.6,21.63-17.63,32.33-26.57c0.72-0.6,1.13-2.07,1.02-3.07c-0.5-4.7-1.79-9.38-1.77-14.06c0.04-8.41,0.57-16.84,1.43-25.21
	c0.28-2.66,0-3.78-2.18-5.56c-11.85-9.7-23.34-19.84-35.1-29.66c-3.81-3.19-4.07-6.85-2.63-11.08
	c6.18-18.06,15.33-34.54,26.82-49.73c3.47-4.58,7.34-8.86,11.16-13.17c2.68-3.02,5.85-3.55,9.81-2.17
	c14.14,4.92,28.45,9.37,42.53,14.43c3.67,1.32,6.32,1.13,9.24-1.19c9.79-7.8,20.68-13.72,32.37-18.07c2.9-1.08,3.9-2.91,4.39-5.56
	c2.68-14.41,5.33-28.82,8.11-43.21c1.18-6.09,4.63-8.5,14.31-9.07c15.85-0.93,31.73-1.85,47.59-1.88
	C334.61,6.35,342.22,8.4,350.14,9.78 M194.91,227.65c1.64,5.26,2.83,10.72,5.01,15.75c12.71,29.31,33.68,50.41,63.33,62.64
	c20.98,8.66,42.81,10.96,64.96,6.74c28.74-5.48,52.57-19.81,70.5-43.09c17.03-22.12,25.23-47.06,23.45-75.31
	c-1.05-16.66-5.39-32.13-13.24-46.67c-7.6-14.08-17.82-26.08-30.55-35.78c-23.66-18.02-50.21-26.34-80.13-24.04
	c-18.28,1.41-35.13,6.61-50.8,16c-23.09,13.83-39.26,33.46-49.12,58.41c-4.87,12.31-6.73,25.34-7.06,38.36
	C191.04,209.38,193.29,218.17,194.91,227.65z"/>
<path class="st1" d="M325,257.46c0-23.75,0-47.5,0-71.75c19.08,0,37.48,0,55.73,0c0-11.79,0-23.06,0-34.4c-49.32,0-98.37,0-147.36,0
	c0,11.7,0,23.08,0,34.81c18.63,0,36.9,0,55.67,0c0,27.06,0,53.78,0,80.58c12.23,0,23.95,0,35.59,0c0.16-0.62,0.31-0.93,0.32-1.24
	C324.98,263.12,324.99,260.78,325,257.46z"/>
<path class="st0" d="M325,257.96c-0.01,2.83-0.02,5.16-0.05,7.49c0,0.31-0.15,0.62-0.32,1.24c-11.65,0-23.37,0-35.59,0
	c0-26.79,0-53.51,0-80.58c-18.77,0-37.04,0-55.67,0c0-11.72,0-23.11,0-34.81c49,0,98.04,0,147.36,0c0,11.35,0,22.62,0,34.4
	c-18.25,0-36.65,0-55.73,0C325,209.97,325,233.71,325,257.96z"/>
</svg>
